Coordinates
version=1
nRows=6
nColumns=36
inDegrees=yes

Units are S.I. units (second, meters, Newtons, ...)
If the header above contains a line with 'inDegrees', this indicates whether rotational values are in degrees (yes) or radians (no).

endheader
time	pelvis_tilt	pelvis_list	pelvis_rotation	pelvis_tx	pelvis_ty	pelvis_tz	hip_flexion_r	hip_adduction_r	hip_rotation_r	knee_angle_r	knee_angle_r_beta	ankle_angle_r	subtalar_angle_r	mtp_angle_r	hip_flexion_l	hip_adduction_l	hip_rotation_l	knee_angle_l	knee_angle_l_beta	ankle_angle_l	subtalar_angle_l	mtp_angle_l	lumbar_extension	lumbar_bending	lumbar_rotation	arm_flex_r	arm_add_r	arm_rot_r	elbow_flex_r	pro_sup_r	arm_flex_l	arm_add_l	arm_rot_l	elbow_flex_l	pro_sup_l
      0.00000000	     -0.60793086	     -0.01012249	      2.83152603	     -0.12841102	      0.90449630	     -0.26849824	     26.18215261	      1.65874604	     -2.25329466	      5.51033800	      0.09617354	      7.74392692	     -5.98393671	     -5.94484516	    -17.19303219	      1.76351652	      3.79805385	      7.84055081	      0.13684343	     18.27796214	      2.74260476	     -5.94484516	     -7.26453557	      1.23037540	     -9.57404096	    -16.08485297	     -5.18587539	    -19.62854744	     21.77616414	     94.37115536	      7.85655408	     -9.33683641	    -15.18640928	     57.26768811	     94.43890312
      0.01000000	     -0.60976556	     -0.51795889	      2.91832499	     -0.11352208	      0.90309668	     -0.26715237	     25.95846662	      2.30397062	     -2.40775263	      6.38950140	      0.11151784	      5.21000000	     -8.33146776	     -6.35096904	    -17.55331887	      1.08358775	      3.55049861	      9.00058625	      0.15708986	     17.87121613	      2.27799308	     -6.35096904	     -6.90644767	      1.76982713	     -9.84246414	    -16.01507192	     -5.53823812	    -18.52667211	     20.91038392	     98.91030907	      7.23523444	     -9.16934054	    -15.74171991	     57.02622012	     98.65106086
      0.02000000	     -0.50289842	     -1.08282821	      3.05498107	     -0.09849154	      0.90195438	     -0.26593917	     25.70686207	      2.91377676	     -3.35589409	      7.47028722	      0.13038111	      3.58133768	     -8.78454355	     -6.36632585	    -17.98753390	      0.32212548	      3.27028443	     10.20674603	      0.17814132	     17.17635505	      1.78233415	     -6.36632585	     -6.65946765	      2.42232006	     -9.90039829	    -16.16547427	     -5.63790540	    -18.65862358	     20.91849307	     98.89502795	      6.80032143	     -8.96786686	    -15.67169440	     56.94839220	     98.70695497
      0.03000000	     -0.53417403	     -1.65409173	      3.15596776	     -0.08356378	      0.90098285	     -0.26456268	     25.39638212	      3.62161327	     -3.55747731	      8.04348073	      0.14038522	      0.45869980	    -10.91335983	     -6.42602171	    -18.17005047	     -0.41202366	      3.25395339	     11.58014402	      0.20211164	     16.23770524	      0.87054029	     -6.42602171	     -6.25529478	      3.07505656	    -10.00693150	    -16.24145649	     -5.70295814	    -18.96951453	     20.98354813	     98.88490762	      6.27604177	     -8.74065225	    -15.77874095	     56.77286175	     98.89438437
      0.04000000	     -0.43204569	     -2.25195297	      3.23462080	     -0.06859459	      0.90056083	     -0.26321213	     24.99790074	      4.29094678	     -4.31635438	      8.80869423	      0.15374072	     -1.04947293	    -10.82139569	     -6.43782838	    -18.32118020	     -1.19825757	      3.03217409	     13.23331663	      0.23096495	     15.21498728	      0.47552923	     -6.43782838	     -6.03162689	      3.78712462	     -9.99722773	    -16.21908087	     -5.77770878	    -18.99777533	     20.96419345	     98.88662614	      5.78376730	     -8.44613353	    -15.74150266	     56.51302577	     98.91057214
      0.05000000	     -0.34961045	     -2.92406208	      3.32217355	     -0.05362424	      0.90059176	     -0.26171784	     24.56208223	      5.05142303	     -5.13143780	      9.47150857	      0.16530901	     -2.90152836	    -10.89821262	     -6.45198191	    -18.15706821	     -2.09185177	      2.71228505	     15.37215301	      0.26829468	     13.82822149	     -0.15474716	     -6.45198191	     -5.72892915	      4.53839706	    -10.02775106	    -16.17780749	     -5.87660787	    -19.03215159	     20.92458289	     98.88621028	      5.25427215	     -8.16653974	    -15.83136118	     56.08128059	     98.91046674
